<?xml version="1.0"?>
<svg width="283.44" height="283.44" xmlns="http://www.w3.org/2000/svg" xmlns:svg="http://www.w3.org/2000/svg">
 <g class="layer">
  <title>Layer 1</title>
  <g id="svg_1">
   <path d="m73.43,119.224c-8.158,5.966 -16.452,3.197 -24.495,-0.302c-4.073,-1.772 -6.168,-5.4 -6.2,-10.125c-0.036,-5.395 3.645,-7.896 7.527,-10.28c1.549,-0.951 3.27,-1.621 4.878,-2.402c-10.828,-4.343 -14.217,-8.835 -11.945,-15.882c1.705,-5.29 12.784,-11.026 17.813,-9.824c4.368,-0.49 6.236,-3.548 8.568,-5.918c4.714,-3.213 6.05,-10.517 12.858,-10.601c4.563,-4.029 8.678,-7.999 14.733,-8.746c10.9,-1.345 21.822,-0.476 32.748,-0.404c12.753,0.084 25.39,1.378 38.036,2.585c8.675,0.828 17.347,1.931 25.573,5.242c11.29,4.544 17.782,12.715 20.14,24.654c1.673,8.469 1.95,17.079 3.359,25.557c0.293,1.766 0.555,3.538 0.813,5.191c5.978,2.497 4.297,8.1 4.751,12.456c0.772,7.409 0.776,14.905 0.925,22.368c0.063,3.137 -0.311,6.282 -2.999,8.545c-0.239,0.201 -0.416,0.614 -0.422,0.932c-0.156,8.213 0.203,16.408 0.888,24.586c1.712,-0.682 2.429,-3.371 5.205,-2.938c-2.451,3.077 -6.691,4.544 -4.819,9.383c2.338,-2.836 4.658,-5.649 6.977,-8.463c0.295,0.232 0.59,0.463 0.885,0.695c-2.773,3.668 -5.546,7.335 -8.319,11.003c2.207,-1.159 3.439,-3.205 5.609,-4.267c0.332,0.191 0.627,0.362 1.151,0.665c2.28,-4.99 7.206,-8.013 9.784,-12.898c-0.624,1.287 -1.101,2.672 -1.895,3.844c-4.64,6.847 -9.717,13.433 -13.872,20.559c-1.774,3.041 -3.329,5.21 -6.892,5.464c-0.366,4.613 -0.799,9.129 -5.518,12.401c-0.844,2.36 -1.214,5.722 -4.435,7.51c-1.183,2.207 -1.301,5.417 -5.139,5.896c-1.133,1.846 -1.428,4.874 -4.738,5.644c-5.569,11.892 -17.201,12.971 -28.126,14.468c-10.227,1.401 -20.457,2.982 -30.958,2.528c-11.613,-0.503 -23.12,-2.207 -34.729,-2.419c-5.442,-0.099 -10.893,0.342 -16.338,0.294c-7.574,-0.067 -9.782,-1.703 -12.578,-8.725c-5.235,-0.324 -10.277,-1.604 -14.903,-3.971c-4.532,-2.319 -6.445,-6.414 -5.872,-11.48c0.514,-4.54 4.004,-6.744 7.472,-8.831c3.15,-1.896 6.545,-3.129 10.457,-3.007c-0.126,-0.678 -0.231,-1.237 -0.336,-1.8c-5.647,-0.016 -10.893,-1.477 -15.756,-3.901c-4.544,-2.265 -6.467,-6.372 -5.927,-11.451c0.479,-4.511 3.91,-6.741 7.332,-8.804c3.352,-2.02 6.964,-3.404 11.139,-3.002c0.04,-0.651 0.074,-1.226 0.11,-1.815c-5.27,-0.394 -10.28,-1.632 -14.866,-3.992c-4.529,-2.33 -6.432,-6.419 -5.866,-11.485c0.503,-4.496 3.948,-6.713 7.375,-8.773c3.286,-1.976 6.822,-3.321 10.911,-2.997c-0.096,-0.695 -0.179,-1.299 -0.261,-1.889c-6.138,-1.876 -13.063,-2.14 -16.841,-8.444c-1.514,-2.527 -1.615,-5.46 -0.951,-8.265c1.328,-5.609 12.495,-11.554 19.897,-10.607c0.15,3.259 0.36,6.553 0.436,9.85c0.076,3.265 0.017,6.533 0.017,9.886c3.404,-0.141 5.934,-1.896 8.696,-2.827c1.121,-3.405 4.303,-5.222 7.075,-4.092c3.228,1.316 5.667,6.471 4.329,9.152c-1.789,3.586 -5.936,4.403 -9.875,1.975c-1.617,0.79 -3.16,1.718 -4.823,2.306c-1.629,0.576 -3.381,0.806 -4.884,1.145c2.269,6.688 0.669,13.909 2.567,20.854c1.82,-0.752 3.75,-1.549 5.692,-2.352c0.527,-3.064 2.673,-4.298 5.404,-4.283c3.311,0.018 4.757,2.537 5.813,5.241c1.015,2.6 0.409,4.657 -1.95,6.357c-2.748,1.982 -5.243,1.576 -7.88,-0.338c-2.152,1.42 -4.502,2.519 -6.992,3.076c-0.847,3.057 0.176,16.72 1.608,21.52c2.057,-0.845 4.097,-1.683 6.152,-2.527c0.549,-3.114 2.739,-4.358 5.516,-4.289c3.289,0.082 4.711,2.632 5.746,5.34c1.007,2.636 0.266,4.666 -2.077,6.322c-2.72,1.924 -5.191,1.482 -7.766,-0.384c-1.984,1.123 -3.949,2.401 -6.294,2.806c0.842,7.303 1.67,14.487 2.523,21.888c2.25,-0.925 4.334,-1.782 6.432,-2.644c0.55,-3.114 2.74,-4.358 5.517,-4.288c3.289,0.082 4.711,2.633 5.746,5.341c1.007,2.636 0.264,4.666 -2.078,6.322c-2.72,1.924 -5.191,1.481 -7.703,-0.339c-1.713,0.872 -3.431,1.746 -5.323,2.709c1.05,3.984 4.385,4.646 7.757,4.649c16.207,0.015 32.367,0.739 48.495,2.387c9.01,0.921 17.916,-0.592 26.871,-1.374c7.874,-0.688 15.335,-2.481 22.692,-5.206c6.164,-2.283 8.485,-7.323 8.599,-13.025c0.342,-17.124 0.123,-34.259 0.123,-51.755c-6.006,0 -11.333,-0.057 -16.658,0.012c-9.608,0.124 -19.255,0.948 -28.755,-1.112c-3.829,-0.83 -5.643,-4.038 -6.587,-7.465c-2.441,-8.865 -2.248,-17.638 3.094,-25.457c3.188,-4.665 8.662,-5.441 13.842,-5.525c8.667,-0.141 17.343,0.259 26.015,0.335c2.563,0.023 5.129,-0.277 7.888,-0.44c-2.593,-19.158 -0.247,-39.103 -13.47,-57.455c-3.773,-3.296 -10.229,-4.683 -17.063,-4.95c-6,-0.235 -12,-0.476 -18,-0.722c-8.918,-0.365 -17.798,0.352 -26.684,0.926c-11.083,0.715 -22.161,1.372 -33.286,1.059c-5.111,-0.144 -10.266,-0.474 -15.36,0.616c-1.697,0.363 -3.184,0.959 -4.588,2.265c-0.11,5.092 -0.043,10.296 0.604,15.52c3.651,0.083 6.539,-1.785 9.671,-2.958c0.545,-3.099 2.733,-4.345 5.51,-4.278c3.29,0.079 4.709,2.63 5.75,5.336c1.04,2.703 0.213,4.746 -2.171,6.394c-2.697,1.864 -5.138,1.38 -7.714,-0.484c-3.085,2.091 -6.527,3.391 -10.287,3.469c0.627,5.858 1.24,11.596 1.884,17.615c2.399,-0.965 4.704,-1.892 6.962,-2.801c1.046,-3.338 4.229,-5.19 6.971,-4.121c3.295,1.284 5.787,6.485 4.411,9.205c-1.799,3.566 -5.814,4.346 -10.058,1.851zm136.491,1.315c-3.538,2.951 -6.913,6.155 -10.686,8.791c-3.034,2.12 -5.207,5.761 -9.169,6.255c-10.337,1.288 -20.728,0.318 -31.065,-0.046c-7.13,-0.251 -14.184,2.244 -16.285,8.266c-2.011,5.767 -2.979,11.902 -1.207,18.002c0.848,2.919 1.749,6.203 5.364,6.882c3.083,0.579 6.26,0.872 9.398,0.897c8.62,0.068 17.261,-0.451 25.857,-0.018c7.964,0.401 15.143,-0.574 21.181,-6.337c5.051,-4.821 10.341,-9.392 15.492,-14.11c1.523,-1.395 1.47,-1.453 1.536,-2.499c-4.913,4.052 -9.601,8.299 -15.341,11.062c5.622,-4.076 10.72,-8.77 16.009,-13.21c0,-0.927 0,-1.812 0,-2.911c-5.446,3.983 -10.726,7.844 -16.006,11.705c-0.195,-0.25 -0.389,-0.5 -0.584,-0.751c5.532,-4.258 11.064,-8.515 16.723,-12.872c-0.072,-0.766 -0.155,-1.655 -0.241,-2.572c-4.226,2.012 -7.261,5.531 -11.297,7.57c3.002,-4.202 7.216,-6.945 11.366,-9.755c-0.042,-0.734 -0.078,-1.352 -0.135,-2.329c-3.777,2.736 -7.308,5.294 -10.839,7.851c2.734,-4.234 6.705,-6.896 10.793,-9.628c-0.076,-0.916 -0.155,-1.866 -0.248,-2.977c-2.756,1.888 -5.241,3.784 -8.444,4.422c2.807,-2.04 5.614,-4.08 8.383,-6.092c-0.072,-1.256 -0.132,-2.3 -0.201,-3.503c-4.495,2.967 -8.703,5.928 -13.85,7.158c4.549,-3.079 9.098,-6.158 13.645,-9.236c-0.06,-0.564 -0.104,-0.978 -0.17,-1.595c-4.072,2.888 -7.706,6.105 -12.853,8.326c0.726,-1.028 1.022,-1.447 1.463,-2.071c-3.889,2.618 -7.585,5.105 -11.281,7.592c-0.185,-0.261 -0.37,-0.521 -0.554,-0.782c7.623,-5.511 15.246,-11.023 22.907,-16.562c-0.078,-0.809 -0.153,-1.581 -0.238,-2.466c-3.481,2.199 -7.084,3.97 -9.423,7.543zm4.257,-7.343c-0.554,-4.223 -1.236,-8.22 -2.427,-12.209c-1.908,-6.39 -0.707,-13.218 -1.872,-19.833c-1.555,-8.831 -4.833,-16.456 -12.493,-21.48c-6.313,-4.14 -13.588,-5.888 -20.966,-6.842c-11.868,-1.535 -23.78,-2.666 -35.751,-3.144c-13.184,-0.527 -26.356,-1.189 -39.561,-0.468c-4.742,0.259 -8.884,1.634 -12.347,4.513c2.261,0 4.652,0.125 7.025,-0.023c7.844,-0.488 15.676,-1.36 23.525,-1.531c6.272,-0.136 12.559,0.721 18.844,0.797c6.571,0.08 13.146,-0.359 19.72,-0.361c6.897,-0.003 13.59,1.639 20.357,2.766c9.404,1.566 17.186,5.951 21.374,14.34c4.562,9.138 6.133,19.445 8.401,29.397c1.237,5.429 1.886,10.993 2.81,16.561c1.135,-0.837 2.277,-1.681 3.361,-2.483zm-5.239,4.123c-0.169,-1.694 -0.279,-3.403 -0.517,-5.095c-1.553,-11.003 -4.33,-21.73 -6.998,-32.504c-2.851,-11.514 -9.078,-19.201 -20.949,-21.817c-7.63,-1.682 -15.241,-3.513 -23.102,-3.601c-5.661,-0.064 -11.329,0.295 -16.988,0.178c-6.759,-0.14 -13.524,-1.006 -20.264,-0.81c-12.838,0.373 -25.62,2.202 -38.496,1.736c-2.287,-0.083 -3.228,1.179 -4.178,2.751c4.091,-0.223 8.1,-0.6 12.111,-0.624c6.663,-0.04 13.176,-1.768 19.888,-1.411c8.158,0.433 16.337,0.504 24.507,0.689c10.413,0.236 20.79,-1.622 31.214,-0.623c11.825,1.132 21.327,6.768 28.805,15.711c6.167,7.376 7.94,16.527 9.305,25.765c1.064,7.206 2.353,14.379 3.554,21.633c0.643,-0.605 1.303,-1.223 2.108,-1.978zm-134.625,-55.976c1.677,0.085 3.01,0.27 4.329,0.201c7.472,-0.395 14.935,-1.067 22.411,-1.239c13.897,-0.32 27.775,-1.106 41.689,-1.176c9.423,-0.048 18.921,-0.984 27.988,1.82c15.946,4.931 24.767,16.543 27.709,32.588c1.806,9.851 1.801,19.981 4.101,29.876c1.043,-1.146 2.594,-1.764 2.362,-4.025c-1.005,-9.783 -3.118,-19.374 -4.777,-29.042c-2.65,-15.442 -12.07,-25.218 -26.287,-30.699c-7.361,-2.838 -15.017,-2.333 -22.782,-1.688c-16.069,1.334 -32.208,-0.746 -48.315,0.553c-7.106,0.573 -14.268,0.419 -21.389,0.855c-2.263,0.137 -4.916,-0.533 -7.039,1.976zm126.509,63.118c-0.924,-4.113 -1.066,-8.212 -1.873,-12.254c-1.424,-7.132 -1.162,-14.524 -2.999,-21.636c-3.438,-13.306 -11.232,-22.982 -24.193,-27.713c-8.02,-2.927 -16.606,-2.48 -25.078,-2.189c-7.902,0.271 -15.82,0.076 -23.724,0.311c-16.162,0.481 -32.319,1.139 -48.481,1.646c-1.577,0.05 -2.241,1.004 -3.46,2.18c1.368,0.103 2.342,0.288 3.301,0.23c8.701,-0.524 17.393,-1.234 26.1,-1.603c7.708,-0.327 15.442,-0.094 23.147,-0.457c12.344,-0.581 24.632,-2.348 37.046,-0.621c10.718,1.491 20.764,4.246 27.485,13.482c5.855,8.046 6.334,17.721 7.263,27.179c0.764,7.78 1.459,15.566 2.214,23.656c1.332,-0.905 2.247,-1.527 3.252,-2.211zm-4.714,3.334c-1.211,-11.459 -2.371,-22.81 -3.63,-34.151c-0.504,-4.543 -1.498,-9.022 -3.499,-13.147c-4.091,-8.435 -11.26,-12.922 -20.113,-15.042c-9.131,-2.187 -18.395,-2.716 -27.748,-2.118c-9.341,0.597 -18.681,1.24 -28.03,1.672c-4.734,0.219 -9.488,-0.001 -14.233,0.009c-8.201,0.017 -16.301,1.927 -24.544,1.301c-2.088,-0.158 -4.395,-0.617 -5.764,1.898c5.138,-0.325 10.181,-0.903 15.225,-0.909c10.112,-0.012 20.192,-0.496 30.268,-1.248c9.282,-0.693 18.561,-1.5 27.889,-1.079c5.647,0.255 11.295,0.549 16.945,0.691c7.85,0.198 15.221,1.764 21.857,6.308c4.091,2.801 5.145,7.077 6.489,11.326c2.468,7.805 5.469,15.435 5.81,23.808c0.292,7.18 1.145,14.338 1.759,21.612c0.45,-0.315 0.859,-0.606 1.319,-0.931zm-145.599,36.55c2.951,-5.693 7.972,-7.383 14.047,-7.187c-0.221,-1.116 -0.404,-2.042 -0.591,-2.988c-3.902,-0.535 -7.348,0.704 -10.552,2.608c-2.802,1.665 -5.731,3.384 -6.166,7.111c-0.47,4.02 0.513,7.687 4.234,9.664c7.752,4.119 15.735,6.367 23.952,0.984c2.383,-1.561 5.399,-2.779 3.394,-6.673c-1.471,1.909 -3.762,2.352 -5.647,3.473c-7.251,4.313 -17.772,2.667 -23.179,-3.782c-0.94,-1.121 -1.972,-2.478 -0.797,-4.452c0.595,0.566 0.998,0.95 1.305,1.242zm19.554,51.617c-0.131,-1.334 -0.249,-2.537 -0.366,-3.739c-3.83,-0.41 -7.074,0.864 -10.087,2.654c-2.795,1.661 -5.713,3.397 -6.131,7.136c-0.457,4.082 0.676,7.587 4.361,9.737c4.224,2.464 8.888,3.827 13.756,4.051c4.068,0.188 7.661,-1.451 11.009,-3.962c2.839,-0.967 3.77,-2.898 2.586,-5.821c-0.71,0.553 -1.353,1.147 -2.083,1.596c-0.769,0.473 -1.64,0.776 -2.437,1.208c-8.661,4.686 -16.732,4.113 -24.036,-2.768c-1.27,-1.196 -2.181,-2.67 -1.061,-5.675c0.659,1.193 0.937,1.696 1.217,2.203c2.484,-5.308 7.564,-7.922 13.272,-6.62zm-17.408,-22.591c2.832,-5.278 7.338,-7.354 13.288,-6.923c0,-1.174 0,-2.206 0,-3.251c-3.864,-0.485 -7.231,0.758 -10.365,2.618c-2.802,1.664 -5.732,3.381 -6.17,7.107c-0.472,4.018 0.504,7.693 4.227,9.665c7.753,4.106 15.735,6.432 23.96,0.991c2.375,-1.571 5.398,-2.781 3.397,-6.664c-1.483,1.887 -3.766,2.342 -5.651,3.463c-7.253,4.312 -17.76,2.671 -23.177,-3.779c-0.942,-1.121 -1.97,-2.479 -0.804,-4.456c0.597,0.566 1.001,0.95 1.295,1.229zm23.867,-82.142c-2.119,2.249 -4.994,3.058 -7.614,4.295c-7.234,3.417 -15.761,1.181 -21.123,-4.347c-1.517,-1.564 -1.937,-3.633 -0.435,-4.715c0.215,0.428 0.474,0.943 0.721,1.433c2.469,-5.346 7.066,-7.033 12.515,-7.493c-0.179,-1.108 -0.328,-2.025 -0.481,-2.972c-3.438,-0.092 -6.38,1.076 -9.106,2.711c-2.794,1.676 -5.725,3.391 -6.156,7.123c-0.471,4.079 0.65,7.601 4.339,9.752c4.262,2.485 8.962,3.869 13.88,4.064c4.028,0.16 7.58,-1.476 10.906,-3.964c2.834,-0.96 3.767,-2.891 2.554,-5.887zm-14.011,13.823c-3.496,-0.127 -6.425,1.08 -9.141,2.704c-2.791,1.669 -5.713,3.397 -6.131,7.135c-0.457,4.081 0.675,7.587 4.36,9.737c4.224,2.465 8.887,3.826 13.754,4.052c4.068,0.19 7.659,-1.452 11.014,-3.963c2.832,-0.963 3.769,-2.892 2.604,-5.772c-4.043,3.128 -8.736,4.773 -14.161,6.143c-0.726,-0.076 -2.108,-0.216 -3.488,-0.368c-6.583,-0.724 -15.022,-7.938 -11.915,-10.45c0.391,0.363 0.802,0.744 1.12,1.04c2.471,-4.964 6.747,-6.914 11.985,-7.199c-0.001,-1.044 -0.001,-1.983 -0.001,-3.059zm-2.654,-52.818c-3.348,-0.039 -6.09,1.342 -8.89,2.657c-6.595,3.099 -8.383,9.856 -3.68,15.31c3,3.479 7.562,4.094 11.76,5.16c5.47,1.389 10.353,-0.018 14.921,-3.46c2.638,-0.445 3.969,-3.415 2.443,-5.763c-2.068,2.159 -4.908,2.957 -7.494,4.181c-7.217,3.415 -15.771,1.231 -21.1,-4.355c-1.116,-1.17 -2.101,-2.597 -0.805,-5.36c0.581,1.053 0.858,1.555 1.066,1.932c2.26,-4.297 5.76,-6.714 10.711,-6.959c0.347,-1.085 0.684,-2.14 1.068,-3.343zm140.125,151.632c0.541,0.015 1.081,0.031 1.622,0.046c4.751,-18.693 -0.162,-37.723 1.098,-57.096c-1.401,1.244 -2.285,2.028 -2.719,2.414c-0.001,18.494 -0.001,36.565 -0.001,54.636zm4.945,-6.926c4.07,-2.292 4.972,-46.227 1.366,-53.162c-0.806,0.726 -1.595,1.437 -2.495,2.249c0.823,16.844 2.167,33.723 1.129,50.913zm6.509,-57.98c-1.456,1.944 -3.416,2.195 -3.349,4.447c0.462,15.494 3.449,30.899 1.259,47.165c1.877,-2.869 3.418,-5.085 3.37,-7.829c-0.162,-9.154 -0.242,-18.317 -0.751,-27.454c-0.287,-5.166 -1.136,-10.302 -0.529,-16.329zm-146.762,0.259c-6.869,-0.762 -12.654,3.055 -12.29,8.399c4.169,1.891 8.011,5.167 13.437,4.162c-0.386,-4.236 -0.763,-8.359 -1.147,-12.561zm5.758,58.864c-5.41,-2.264 -12.226,2.135 -11.798,7.634c3.863,1.696 7.394,4.729 12.383,4.265c1.068,-4.199 -0.783,-8.019 -0.585,-11.899zm-2.729,-17.203c-0.641,-4.237 -1.271,-8.395 -1.899,-12.543c-6.041,-0.777 -11.491,3.085 -11.286,8.345c4.126,1.791 7.887,5.056 13.185,4.198zm-17.727,-89.877c3.809,1.616 7.249,4.61 12.137,4.284c-0.228,-2.411 -0.421,-4.515 -0.629,-6.618c-0.21,-2.127 -0.437,-4.253 -0.654,-6.357c-4.845,-0.013 -11.788,3.454 -10.854,8.691zm147.077,114.857c2.184,-18.263 1,-36.607 0.833,-55.133c-0.828,0.494 -1.404,0.838 -1.972,1.177c-0.485,18.011 1.35,35.96 1.139,53.956zm19.678,-30.754c0.635,-12.958 -1.429,-25.962 -0.979,-39.286c-1.107,0.892 -1.94,1.563 -2.886,2.326c-0.101,12.573 2.018,25.08 1.319,37.816c0.997,-0.336 1.593,-0.537 2.546,-0.856zm-153.893,-51.972c0.41,-2.122 0.159,-11.247 -0.274,-12.977c-5.224,-0.425 -10.211,3.481 -10.254,8.24c3.189,2.051 6.677,3.631 10.528,4.737zm-4.082,-52.953c0,-4.442 0,-8.634 0,-12.895c-6.001,1.268 -9.025,4.161 -8.8,8.185c2.551,2.432 6.175,2.727 8.8,4.71zm19.121,-5.333c1.579,3.493 0.955,6.103 -2.349,7.912c1.621,1.011 2.987,1.153 4.319,0.106c1.004,-0.789 2.287,-1.389 1.841,-3.113c-0.545,-2.11 -1.371,-3.939 -3.811,-4.905zm-2.328,33.097c2.021,1.369 3.514,0.781 5.079,-0.422c1.374,-1.056 1.257,-2.239 0.79,-3.603c-0.748,-2.186 -2.025,-3.531 -3.41,-3.586c1.443,3.202 0.835,5.816 -2.459,7.611zm2.419,27.584c2.084,1.248 2.953,1.092 4.86,-0.259c1.401,-0.993 1.544,-2.15 1.041,-3.632c-0.749,-2.208 -2.036,-3.63 -3.462,-3.708c1.439,3.199 0.849,5.819 -2.439,7.599zm2.307,21.149c1.574,3.49 0.979,6.109 -2.385,7.932c1.599,0.934 2.94,1.185 4.242,0.171c0.992,-0.773 2.371,-1.323 1.977,-3.051c-0.495,-2.171 -1.344,-4.043 -3.834,-5.052zm-0.214,36.931c1.993,1.306 3.458,0.883 4.974,-0.288c1.19,-0.92 1.548,-1.926 1.08,-3.311c-0.621,-1.835 -1.457,-3.469 -3.644,-4.254c1.487,3.394 1.036,6.057 -2.41,7.853zm4.058,29.041c1.781,1.117 3.171,1.088 4.586,0.001c1.127,-0.867 2.093,-1.679 1.552,-3.348c-0.627,-1.937 -1.424,-3.665 -3.696,-4.495c1.455,3.355 1.058,6.033 -2.442,7.842zm142.073,-47.872c-1.896,1.718 -3.851,3.436 -4.428,6.148c1.476,-2.049 2.952,-4.099 4.428,-6.148zm-10.071,-64.71c-0.073,-0.1 -0.146,-0.2 -0.219,-0.299c-1.381,1.037 -2.761,2.074 -4.142,3.111c0.065,0.087 0.13,0.173 0.195,0.26c1.388,-1.024 2.777,-2.048 4.166,-3.072z" fill="black" id="svg_2"/>
   <path d="m157.473,160.409c-4.17,-0.002 -7.482,-3.478 -7.476,-7.849c0.005,-4.063 2.396,-7.635 5.122,-7.638c4.087,-0.005 8.437,-2.307 12.116,1.281c1.285,1.254 1.807,2.898 1.795,4.692c-0.033,5.143 -5.349,9.517 -11.557,9.514zm3.88,-12.933c-2.267,1.509 -7.721,-1.24 -8.38,4.555c-0.318,2.802 0.889,5.579 4.366,5.753c4.418,0.22 8.664,-3.272 8.6,-6.833c-0.042,-2.381 -1.232,-3.74 -4.586,-3.475z" id="svg_3"/>
   <path d="m192.718,164.784c-1.076,-0.425 -1.013,-1.062 -1.053,-1.654c-0.426,-6.261 -0.854,-12.522 -1.278,-18.783c-0.057,-0.842 -0.218,-1.845 0.943,-1.995c1.129,-0.146 1.207,0.897 1.319,1.646c0.939,6.3 1.393,12.626 0.768,18.988c-0.059,0.599 -0.445,1.167 -0.699,1.798z" id="svg_4"/>
  </g>
  <path d="m109.488582,100.345723c0.163048,0.832573 0.639412,1.697716 0.971428,2.380241c0.412033,0.847015 0.755974,1.753098 1.008759,2.396332c0.374374,0.952621 0.735413,1.633987 1.098862,2.445335c0.38916,0.868744 0.729118,1.639008 0.994286,2.503998c0.291061,0.949455 0.559509,1.795738 0.800186,2.649902c0.233055,0.827103 0.474052,1.691986 0.791786,2.50174c0.333443,0.8498 0.655724,1.588615 0.971428,2.444908c0.324287,0.879585 0.702408,1.598595 1.029167,2.433739c0.321144,0.820793 0.653786,1.680351 1.069336,2.571999c0.372887,0.800102 0.578621,1.472816 0.957237,2.367714c0.356956,0.843704 0.74247,1.537659 1.186478,2.432663c0.397675,0.801605 0.806557,1.553345 1.24733,2.369141c0.41481,0.767746 0.78067,1.488998 1.181885,2.353958c0.396126,0.854004 0.81514,1.580795 1.214882,2.403183c0.375,0.7715 0.779182,1.594238 1.167427,2.411819c0.383331,0.807236 0.737015,1.62851 1.050331,2.438049c0.330719,0.854507 0.668549,1.622757 1.116333,2.442902c0.408295,0.747803 0.825096,1.540955 1.219765,2.329285c0.410835,0.820618 0.751472,1.596619 1.205734,2.420029l0.445908,0.748978" fill="none" id="svg_13" stroke="#000000" stroke-width="5" transform="rotate(14.6458 119.853 123.869)"/>
  <path d="m98.774292,114.774292c-0.005951,1.026787 -0.052834,1.928253 -0.217613,2.681526c-0.217766,0.995461 -0.478516,1.692055 -0.754005,2.681526c-0.180199,0.647217 -0.474327,1.781715 -0.680046,2.464882c-0.205727,0.683182 -0.596397,1.796661 -0.833092,2.446548c-0.298065,0.818405 -0.550186,1.742241 -0.779625,2.577713c-0.23877,0.869453 -0.586227,1.762764 -0.898232,2.65136c-0.232376,0.661804 -0.574104,1.642532 -0.914291,2.542099c-0.30864,0.816147 -1.601662,1.536636 -1.205833,2.311493c0.390991,0.765381 1.566681,0.164642 2.472839,0.257141c1.047318,0.106918 1.886826,0.157669 2.599998,0.199997c0.975075,0.057861 1.909401,0.112869 2.572952,0.15715c1.027534,0.068573 1.79998,0.130936 2.958115,0.163895c0.77726,0.022125 1.711823,0.037857 2.567337,0.10817c0.901611,0.074097 1.800056,0.203705 2.600639,0.276917c0.92495,0.084595 1.862053,0.262329 2.695168,0.487106l0.820839,0.278198" fill="none" id="svg_14" stroke="#000000" stroke-width="5"/>
  <path d="m133.986107,107.41714c-0.005951,1.026787 -0.052834,1.928253 -0.217613,2.681526c-0.217766,0.995461 -0.478516,1.692055 -0.754005,2.681526c-0.180199,0.647217 -0.474327,1.781715 -0.680046,2.464882c-0.205727,0.683182 -0.596397,1.796661 -0.833092,2.446548c-0.298065,0.818405 -0.550186,1.742241 -0.779625,2.577713c-0.23877,0.869453 -0.586227,1.762764 -0.898232,2.65136c-0.232376,0.661804 -0.574104,1.642532 -0.914291,2.542099c-0.30864,0.816147 -1.601662,1.536636 -1.205833,2.311493c0.390991,0.765381 1.566681,0.164642 2.472839,0.257141c1.047318,0.106918 1.886826,0.157669 2.599998,0.199997c0.975075,0.057861 1.909401,0.112869 2.572952,0.15715c1.027534,0.068573 1.79998,0.130936 2.958115,0.163895c0.77726,0.022125 1.711823,0.037857 2.567337,0.10817c0.901611,0.074097 1.800056,0.203705 2.600639,0.276917c0.92495,0.084595 1.862053,0.262329 2.695168,0.487106l0.820839,0.278198" fill="none" id="svg_16" stroke="#000000" stroke-width="5" transform="rotate(-159.032 137.31 118.56)"/>
  <path d="m113.199478,170.823678c0,0.950084 0,1.982374 0,3.014773c0,1.147297 0,2.053419 0,3.122851c0,0.988021 0,2.260601 0,3.103204c0,0.942178 0,1.917553 0,2.859731c0,1.537382 0.005154,2.599722 -0.000113,3.753026c-0.003573,0.781653 -0.015799,1.886581 -0.190957,2.945809c-0.15826,0.957031 -0.449865,2.239578 -0.48172,3.233606c-0.030541,0.953105 -0.453735,2.089004 -0.648573,3.081078c-0.206839,1.053204 -0.236261,2.128263 -0.505938,3.053398c-0.308082,1.056895 0.00346,2.084066 -0.248478,3.182227c-0.216263,0.942666 -0.615568,1.970651 -0.951779,3.021286c-0.313564,0.97988 -0.381596,2.033645 -0.723022,3.064959c-0.33041,0.998044 -0.286164,2.073283 -0.286164,3.081458c0,1.098306 0.246065,2.196467 -0.038456,3.173163c-0.304006,1.043598 -0.634334,2.025052 -0.634334,3.044696c0,1.043055 0,2.097779 0,3.164841c0,0.969369 0,1.97132 0,3.132258l0,1.082277" fill="none" id="svg_18" stroke="#000000" stroke-width="5" transform="rotate(-1.41853 110.846 197.881)"/>
  <path d="m133.595001,175.309998c-0.878662,0.11084 -1.353333,0.83226 -2,1.5c-0.49707,0.513275 -1.066483,1.237762 -1.617996,1.887329c-0.684067,0.805679 -1.295868,1.175034 -2.039337,1.812668c-0.667015,0.572067 -1.23365,1.227951 -2.009331,1.883331c-0.642914,0.543213 -1.197647,0.887222 -2.073921,1.511749c-0.764137,0.544601 -1.389343,1.267319 -1.933083,1.78125c-0.686058,0.648453 -1.241455,1.302765 -1.815918,1.884094c-0.627495,0.634995 -0.861717,1.588272 -1.510414,2.239578c-0.599121,0.601532 -1.043175,1.377899 -1.473663,2.119171c-0.425507,0.732697 -0.958122,1.192276 -1.526337,1.880829c-0.577881,0.700272 -1.042519,1.369827 -0.787331,2.205338c0.246834,0.808151 0.502213,1.630814 0.813667,2.468323c0.318542,0.856583 0.676102,1.647476 1.023666,2.537094c0.268631,0.687592 0.549995,1.589249 0.799995,2.339249c0.300003,0.899994 0.530365,1.65686 0.855331,2.555328c0.356621,0.985992 0.719437,1.701843 1.052673,2.452667c0.379539,0.855148 0.653175,1.620163 1.241997,2.43158c0.530319,0.730804 0.946617,1.542038 1.378586,2.210419c0.477921,0.739471 1.075607,1.588409 1.70475,2.216675c0.517235,0.51651 1.364777,1.152451 2.077248,1.63324c0.738205,0.498154 1.623337,0.509521 2.539413,0.450089c0.855392,-0.055496 1.522751,-0.697144 2.042664,-1.384674c0.475845,-0.629272 1.139709,-1.330811 1.674011,-2.198654c0.388367,-0.630798 0.698944,-1.568039 0.983322,-2.258667c0.370529,-0.899826 0.714844,-1.809692 1,-2.5c0.380386,-0.920837 0.692917,-1.737152 1.007339,-2.470673c0.317734,-0.741226 0.463943,-1.783585 0.703415,-2.726578c0.172638,-0.679825 0.575851,-1.579773 0.97258,-2.460754c0.338974,-0.752731 0.654587,-1.514481 0.929337,-2.312668c0.297958,-0.865601 0.554306,-1.762527 1.013672,-2.508743c0.433823,-0.704727 0.961273,-1.248962 1.460999,-1.896591c0.571228,-0.740295 1.376434,-1.655121 1.951996,-1.060577c0.598816,0.618561 0.732513,1.596222 1.11058,2.378494c0.389587,0.806122 0.712494,1.577332 1.150085,2.318085c0.446289,0.755508 0.653198,1.679199 1.018005,2.494675c0.339737,0.759415 1.00798,1.492584 1.381332,2.286667c0.365952,0.778351 0.741226,1.499969 1.317337,2.300659c0.480133,0.667297 0.764862,1.540039 1.333328,2.239578c0.539795,0.664261 1.221344,1.401077 1.891998,1.90242c0.647675,0.484161 1.460297,0.961227 2.257996,1.216003c0.822632,0.262741 1.612656,0.639328 2.450012,0.641998c0.910416,0.002899 1.756805,-0.16597 2.349991,-0.723328c0.620605,-0.58313 0.980057,-1.465118 1.383331,-2.360001c0.30632,-0.679733 1.018112,-1.45787 1.274002,-2.217331c0.26564,-0.788422 0.387314,-1.664215 0.559341,-2.699341c0.121826,-0.733109 0.048386,-1.662109 0.125992,-2.427338c0.091751,-0.904648 0.35675,-1.7061 0.446915,-2.791412c0.067276,-0.809784 0.010422,-1.765244 0.010422,-2.628586c0,-0.895493 0,-1.852005 0,-2.710663l0,-0.854675l0,-0.906494" fill="none" id="svg_19" stroke="#000000" stroke-width="5" transform="rotate(-9.59093 138.427 196.322)"/>
 </g>
</svg>